<?xml version="1.0" standalone="no"?>
<!DOCTYPE svg PUBLIC "-//W3C//DTD SVG 20010904//EN"
 "http://www.w3.org/TR/2001/REC-SVG-20010904/DTD/svg10.dtd">
<svg version="1.0" xmlns="http://www.w3.org/2000/svg"
 width="360.000000pt" height="360.000000pt" viewBox="0 0 360.000000 360.000000"
 preserveAspectRatio="xMidYMid meet">

<g transform="translate(0.000000,360.000000) scale(0.100000,-0.100000)"
fill="#000000" stroke="none">
<path d="M1756 2905 c-49 -17 -103 -69 -111 -107 -8 -34 16 -78 43 -78 9 0 37
18 61 40 50 45 96 53 124 22 35 -38 6 -93 -58 -108 -47 -11 -55 -22 -55 -78 0
-64 20 -96 60 -96 30 0 60 30 60 60 0 9 15 21 34 28 50 18 93 72 102 127 20
138 -119 240 -260 190z"/>
<path d="M1775 2435 c-29 -28 -31 -51 -9 -83 18 -27 84 -31 104 -6 21 25 16
75 -9 96 -31 25 -57 23 -86 -7z"/>
<path d="M1245 1986 c-66 -34 -151 -70 -190 -80 -38 -10 -93 -24 -122 -32
l-52 -14 -21 -66 c-27 -90 -57 -271 -70 -429 -16 -199 -30 -674 -30 -1037 l0
-328 1041 0 1041 0 -5 733 c-5 738 -10 850 -47 1012 -22 100 -31 114 -75 126
-22 6 -75 20 -118 31 -43 11 -136 49 -207 84 l-129 64 -89 0 -88 0 -18 -152
c-25 -221 -109 -668 -123 -654 -3 3 -27 120 -54 261 l-49 256 25 49 25 49 -40
50 c-22 28 -44 51 -49 51 -24 0 -43 -16 -75 -60 l-34 -47 31 -48 31 -47 -49
-266 c-26 -147 -52 -271 -56 -277 -5 -5 -9 -5 -9 -1 0 4 -18 97 -40 206 -48
233 -90 504 -90 578 l0 52 -72 -1 c-68 -2 -81 -6 -193 -63z"/>
</g>
</svg>
